<svg width="75" height="75" viewBox="0 0 75 75" fill="none" xmlns="http://www.w3.org/2000/svg">
<path d="M37.4953 0C16.7906 0 0 17.2146 0 38.4504C0 55.4352 10.7438 69.8446 25.65 74.9333C27.525 75.2876 28.2094 74.1003 28.2094 73.0807C28.2094 72.1663 28.1766 69.7488 28.1578 66.5414C17.7281 68.8632 15.525 61.3857 15.525 61.3857C13.8234 56.9432 11.3625 55.7608 11.3625 55.7608C7.95469 53.3768 11.6156 53.4246 11.6156 53.4246C15.3797 53.6975 17.3578 57.3884 17.3578 57.3884C20.7047 63.2622 26.1375 61.5676 28.275 60.5814C28.6125 58.0969 29.5828 56.4022 30.6562 55.44C22.3312 54.4682 13.575 51.1699 13.575 36.4398C13.575 32.2415 15.0375 28.8091 17.4375 26.1187C17.0484 25.1469 15.7641 21.2358 17.8031 15.946C17.8031 15.946 20.9531 14.912 28.1156 19.8858C31.1063 19.0337 34.3125 18.6077 37.5047 18.5933C40.6875 18.6125 43.8984 19.0337 46.8937 19.8906C54.0516 14.9168 57.1969 15.9508 57.1969 15.9508C59.2406 21.2454 57.9562 25.1517 57.5719 26.1235C59.9766 28.8139 61.425 32.2463 61.425 36.4446C61.425 51.213 52.6594 54.4634 44.3062 55.4161C45.6516 56.6033 46.8516 58.949 46.8516 62.5346C46.8516 67.676 46.8047 71.8217 46.8047 73.0807C46.8047 74.1099 47.4797 75.3067 49.3828 74.9285C64.2656 69.835 75 55.4305 75 38.4504C75 17.2146 58.2094 0 37.4953 0Z" fill="#1F2937"/>
</svg>
