<svg width="32" height="32" viewBox="0 0 32 32" fill="none" xmlns="http://www.w3.org/2000/svg">
<g clip-path="url(#clip0)">
<path d="M22.9077 12.6907C21.2237 5.27733 17.2517 2.84133 16.825 1.90933C16.3557 1.252 15.8477 0 15.8477 0C15.845 0.0253333 15.8424 0.0413333 15.841 0.0653333V0.0826667H15.8397C15.837 0.102667 15.8357 0.116 15.8344 0.134667V0.154667H15.8317C15.8317 0.168 15.829 0.178667 15.829 0.189333V0.224H15.825C15.8237 0.234667 15.8237 0.248 15.821 0.257333V0.285333H15.8184C15.8184 0.294667 15.8184 0.305333 15.8157 0.313333V0.34H15.813C15.813 0.353333 15.8117 0.369333 15.8104 0.382667V0.385333C15.8064 0.408 15.8024 0.430667 15.7984 0.452V0.462667H15.7957C15.7944 0.468 15.7917 0.473333 15.7917 0.478667V0.501333H15.7877V0.530667H15.781V0.554667H15.7744V0.582667H15.769V0.608H15.7637V0.630667H15.7557V0.649333H15.7504V0.673333H15.745V0.692H15.7384V0.709333H15.7344V0.729333H15.729C15.7277 0.730667 15.7277 0.733333 15.7277 0.734667V0.748H15.7237C15.7224 0.750667 15.7224 0.753333 15.7224 0.756V0.764H15.7197C15.7184 0.768 15.717 0.774667 15.717 0.777333C15.713 0.786667 15.7077 0.796 15.7037 0.805333V0.808C15.701 0.810667 15.6984 0.814667 15.697 0.817333V0.828H15.6917V0.838667H15.685V0.849333H15.681V0.862667H15.673V0.881333H15.6677V0.886667H15.6624V0.897333H15.657V0.912H15.6517V0.922667H15.6437V0.937333H15.6384V0.948H15.6317V0.958667H15.6277V0.972H15.621V0.982667H15.6157V0.990667H15.6104V1.00133H15.6024V1.01333H15.597V1.02133H15.5904V1.032H15.585V1.04667H15.5784V1.052H15.5744V1.06267H15.5664V1.068H15.561V1.08133H15.5557V1.08667H15.5504V1.09733H15.5437V1.10533H15.5397L15.537 1.11067V1.116H15.5344C15.533 1.11867 15.5317 1.11867 15.5317 1.12133V1.12267H15.5304C15.529 1.12667 15.5277 1.12933 15.525 1.132V1.136H15.5237C15.517 1.144 15.513 1.152 15.5077 1.16V1.16133C15.505 1.164 15.4984 1.16933 15.4957 1.17467V1.17733H15.4944C15.493 1.17867 15.4904 1.18 15.4904 1.18133V1.18533H15.4877L15.4837 1.18933V1.19067H15.4824C15.4824 1.192 15.4797 1.19333 15.4784 1.196V1.20133H15.4744L15.4717 1.204V1.20667H15.469C15.469 1.20933 15.4664 1.20933 15.4664 1.21067V1.21467H15.461C15.461 1.216 15.4597 1.21733 15.4584 1.21867V1.22667H15.4544V1.232H15.449V1.24H15.4437V1.25067H15.437V1.24H15.4304V1.24533H15.425V1.25333H15.4184V1.264H15.4117V1.26933H15.4064V1.27733H15.401V1.28267H15.3957V1.29333H15.3877V1.29867H15.3824V1.30667H15.3757V1.312H15.3704V1.31867H15.3637V1.332H15.361V1.33733H15.353V1.344H15.3477V1.34667H15.3424V1.352H15.3357V1.36533H15.3304V1.37067H15.3237V1.376H15.3184V1.384H15.3117V1.38933H15.305V1.39467H15.2997V1.4H15.2944V1.41333H15.289V1.42H15.281V1.42533H15.2757V1.43067H15.269V1.43867H15.2637V1.444H15.257V1.45333H15.2517V1.45867H15.2437V1.46667H15.241V1.472H15.2357V1.47733H15.229V1.48267H15.2237V1.49067H15.217V1.496H15.213C15.2117 1.49733 15.2117 1.49867 15.2117 1.49867V1.50133H15.209L15.2037 1.50667C15.2037 1.50667 15.201 1.50933 15.1984 1.51067V1.51867H15.193V1.52533H15.1877V1.53067H15.1824V1.536H15.1784L15.1744 1.54V1.544H15.1717L15.169 1.54667V1.55067H15.1664C15.1597 1.55867 15.157 1.564 15.1477 1.572C15.145 1.57467 15.137 1.58133 15.1317 1.58533C15.1157 1.596 15.0957 1.61333 15.0797 1.628C15.069 1.63467 15.0584 1.644 15.0504 1.65067V1.652H15.049C15.0277 1.66933 15.0077 1.68533 14.9837 1.704V1.70533C14.9517 1.732 14.921 1.75733 14.885 1.788V1.78667H14.8824C14.8064 1.84933 14.7264 1.92 14.6344 1.99867V2H14.633C14.4077 2.19733 14.1397 2.45067 13.8397 2.75733L13.8197 2.77733L13.8144 2.78267C12.001 4.65867 9.1437 8.568 8.84237 14.8853C8.8157 15.408 8.82104 15.916 8.85037 16.4107V16.4227C8.9957 18.912 9.77704 21.0373 10.7544 22.764V22.7653C11.1437 23.4533 11.5637 24.0787 11.989 24.6387V24.64C13.4584 26.58 14.9584 27.7293 15.341 28.008C15.929 29.372 15.8744 31.7133 15.8744 31.7133L16.733 32C16.733 32 16.5584 29.732 16.8037 28.6373C16.8797 28.2947 17.0597 28.0027 17.269 27.7547C17.4104 27.6547 17.829 27.3533 18.3317 26.8947C18.3557 26.8693 18.369 26.8467 18.3904 26.8227C20.4184 24.932 24.2064 20.276 22.9077 12.6907V12.6907Z" fill="#228B22"/>
</g>
<defs>
<clipPath id="clip0">
<rect width="32" height="32" fill="white"/>
</clipPath>
</defs>
</svg>
