<svg width="33" height="32" viewBox="0 0 33 32" fill="none" xmlns="http://www.w3.org/2000/svg">
<g clip-path="url(#clip0)">
<path d="M24.5655 30.0024C24.4475 30.065 24.4542 30.0904 24.5721 30.0304C24.6066 30.0155 24.6381 29.9942 24.6649 29.9677C24.6649 29.9464 24.6622 29.949 24.5655 30.0024ZM24.8013 29.877C24.7457 29.921 24.7457 29.9237 24.8133 29.889C24.8504 29.8704 24.8822 29.849 24.8822 29.8424C24.8822 29.817 24.8663 29.8237 24.8013 29.877ZM24.9564 29.7824C24.9007 29.8264 24.9007 29.829 24.9683 29.7944C25.0054 29.7757 25.0372 29.7544 25.0372 29.7477C25.0372 29.7224 25.0213 29.729 24.9564 29.7824ZM25.1114 29.689C25.0557 29.733 25.0557 29.7357 25.1233 29.701C25.1604 29.6824 25.1922 29.661 25.1922 29.6544C25.1922 29.629 25.1763 29.6357 25.1114 29.689ZM25.326 29.549C25.2174 29.6184 25.1829 29.665 25.2797 29.6117C25.3486 29.5717 25.4599 29.4864 25.4413 29.4837C25.4007 29.5013 25.362 29.5232 25.326 29.549ZM15.8216 0.00768724C15.7527 0.0143539 15.5354 0.0356872 15.3393 0.0516872C10.8236 0.461021 6.59282 2.91302 3.91362 6.68236C2.43245 8.75122 1.4697 11.1494 1.10721 13.673C0.980012 14.5517 0.964111 14.8117 0.964111 16.0037C0.964111 17.1957 0.980012 17.4544 1.10721 18.3344C1.97113 24.3424 6.22049 29.3904 11.983 31.261C13.0152 31.5957 14.1031 31.8237 15.3393 31.961C15.8216 32.0144 17.9032 32.0144 18.3856 31.961C20.5202 31.7237 22.3302 31.1917 24.1136 30.2757C24.3866 30.1344 24.4396 30.097 24.4025 30.0664C23.5313 28.9081 22.6683 27.7436 21.8134 26.573L19.2707 23.117L16.0853 18.373C15.0262 16.7856 13.9569 15.2051 12.8774 13.6317C12.8655 13.629 12.8522 15.737 12.8469 18.3104C12.8377 22.817 12.835 22.9984 12.778 23.105C12.724 23.2296 12.6271 23.3305 12.5051 23.389C12.4057 23.4397 12.3183 23.449 11.8492 23.449H11.3112L11.1681 23.3584C11.0798 23.3024 11.008 23.2237 10.9601 23.1304L10.8952 22.989L10.9018 16.7184L10.9111 10.445L11.0078 10.3237C11.0728 10.2469 11.1509 10.1823 11.2384 10.133C11.3656 10.0704 11.4159 10.0637 11.9539 10.0637C12.5886 10.0637 12.6932 10.089 12.8589 10.2704C14.1483 12.2014 15.427 14.1396 16.6948 16.085C18.7592 19.2344 21.5802 23.5344 22.9675 25.6464L25.485 29.4837L25.6122 29.3997C26.8236 28.5889 27.9221 27.619 28.8784 26.5157C30.8818 24.2086 32.1811 21.3688 32.6203 18.337C32.7475 17.4584 32.7634 17.1984 32.7634 16.0064C32.7634 14.8144 32.7475 14.5557 32.6203 13.6757C31.7564 7.66769 27.507 2.61969 21.7445 0.749021C20.6676 0.404018 19.5586 0.170366 18.4346 0.0516872C18.1364 0.0210206 16.0813 -0.0136461 15.8243 0.0116872L15.8216 0.00768724ZM22.3302 9.68502C22.4043 9.7225 22.4702 9.77446 22.5241 9.83788C22.578 9.90129 22.6189 9.97488 22.6442 10.0544C22.6694 10.1357 22.6747 11.8744 22.6694 15.793L22.6601 21.417L21.6743 19.897L20.6858 18.377V14.289C20.6858 11.6464 20.6977 10.161 20.7163 10.089C20.7388 10.0059 20.7775 9.9282 20.8303 9.86042C20.8831 9.79263 20.9489 9.73617 21.0237 9.69436C21.1509 9.62902 21.1973 9.62236 21.6862 9.62236C22.146 9.62236 22.2268 9.62902 22.3302 9.68502Z" fill="black"/>
</g>
<defs>
<clipPath id="clip0">
<rect width="31.8006" height="32" fill="white" transform="translate(0.962646)"/>
</clipPath>
</defs>
</svg>
