<svg width="33" height="32" viewBox="0 0 33 32" fill="none" xmlns="http://www.w3.org/2000/svg">
<g clip-path="url(#clip0)">
<path d="M26.6444 11.0754C26.3091 10.9629 25.9737 10.8567 25.6383 10.7567C25.6942 10.5254 25.7438 10.2942 25.7935 10.0629C26.5575 6.33794 26.0544 3.34419 24.3588 2.35669C22.7253 1.41294 20.0607 2.39419 17.3651 4.75669C17.0981 4.98794 16.8372 5.23169 16.5887 5.47544C16.421 5.31294 16.2471 5.15044 16.0732 4.99419C13.2472 2.46919 10.415 1.40669 8.71933 2.40044C7.09204 3.35044 6.60757 6.16919 7.29079 9.69419C7.35911 10.0442 7.43364 10.3879 7.5206 10.7379C7.12309 10.8504 6.73179 10.9754 6.36534 11.1067C3.04864 12.2629 0.6698 14.0879 0.6698 15.9754C0.6698 17.9254 3.20391 19.8817 6.65105 21.0692C6.93055 21.1629 7.21005 21.2567 7.49575 21.3379C7.40259 21.7129 7.32184 22.0817 7.24731 22.4629C6.59515 25.9317 7.10446 28.6817 8.73176 29.6254C10.4087 30.6004 13.2286 29.6004 15.9738 27.1817C16.1912 26.9879 16.4086 26.7879 16.626 26.5754C16.8993 26.8442 17.185 27.1004 17.4707 27.3504C20.129 29.6504 22.7563 30.5817 24.3774 29.6379C26.0544 28.6629 26.601 25.7067 25.8929 22.1067C25.837 21.8317 25.7749 21.5504 25.7066 21.2629C25.9053 21.2067 26.0979 21.1442 26.2904 21.0817C29.8742 19.8879 32.4704 17.9567 32.4704 15.9754C32.4704 14.0817 30.0233 12.2442 26.6444 11.0754ZM18.2409 5.76919C20.5514 3.74419 22.7066 2.95044 23.688 3.51919C24.7377 4.12544 25.1414 6.57544 24.483 9.79419C24.4395 10.0067 24.396 10.2129 24.3401 10.4192C22.9613 10.1067 21.5638 9.88169 20.1601 9.75669C19.3527 8.59419 18.4707 7.48169 17.5142 6.43794C17.7564 6.20669 17.9924 5.98794 18.2409 5.76919ZM11.0547 19.2192C11.3715 19.7629 11.6944 20.3067 12.036 20.8379C11.0671 20.7317 10.1044 20.5754 9.15411 20.3692C9.42739 19.4692 9.769 18.5379 10.1665 17.5879C10.4522 18.1379 10.7441 18.6817 11.0547 19.2192ZM9.17274 11.7004C10.0671 11.5004 11.0174 11.3379 12.005 11.2129C11.6758 11.7317 11.3528 12.2629 11.0485 12.8004C10.7441 13.3317 10.446 13.8754 10.1665 14.4254C9.77521 13.4942 9.44603 12.5817 9.17274 11.7004ZM10.8746 16.0067C11.2845 15.1442 11.7317 14.3004 12.2037 13.4692C12.6758 12.6379 13.1851 11.8317 13.7192 11.0379C14.6509 10.9692 15.6012 10.9317 16.5701 10.9317C17.539 10.9317 18.4955 10.9692 19.421 11.0379C19.9489 11.8254 20.452 12.6317 20.9303 13.4567C21.4085 14.2817 21.8557 15.1254 22.2781 15.9817C21.8619 16.8442 21.4147 17.6942 20.9365 18.5317C20.4644 19.3629 19.9613 20.1692 19.4334 20.9692C18.508 21.0379 17.5452 21.0692 16.5701 21.0692C15.595 21.0692 14.6509 21.0379 13.7379 20.9817C13.1975 20.1879 12.6882 19.3754 12.2099 18.5442C11.7317 17.7129 11.2907 16.8692 10.8746 16.0067ZM22.0917 19.2067C22.4085 18.6567 22.7066 18.1004 22.9986 17.5379C23.3961 18.4442 23.7439 19.3629 24.0482 20.3067C23.0855 20.5254 22.1104 20.6942 21.129 20.8067C21.4644 20.2817 21.7812 19.7442 22.0917 19.2067ZM22.9861 14.4254C22.6942 13.8754 22.3961 13.3254 22.0855 12.7879C21.7812 12.2567 21.4644 11.7317 21.1352 11.2129C22.1352 11.3379 23.0917 11.5067 23.9861 11.7129C23.7004 12.6379 23.365 13.5379 22.9861 14.4254ZM16.5825 7.39419C17.2347 8.10669 17.8496 8.85669 18.421 9.63169C17.1912 9.57544 15.9552 9.57544 14.7254 9.63169C15.3341 8.82544 15.9614 8.07544 16.5825 7.39419ZM9.3777 3.56294C10.4212 2.95044 12.7379 3.82544 15.1788 6.00044C15.3341 6.13794 15.4894 6.28794 15.6509 6.43794C14.6882 7.48169 13.8 8.59419 12.9863 9.75669C11.5826 9.88169 10.1914 10.1004 8.8125 10.4067C8.73176 10.0879 8.66343 9.76294 8.59511 9.43794C8.01127 6.41294 8.39636 4.13169 9.3777 3.56294ZM7.856 20.0379C7.59513 19.9629 7.34048 19.8817 7.08582 19.7942C5.76287 19.3754 4.25979 18.7129 3.17286 17.8442C2.54554 17.4067 2.12319 16.7317 2.00518 15.9754C2.00518 14.8317 3.96787 13.3692 6.80012 12.3754C7.15415 12.2504 7.51439 12.1379 7.87463 12.0317C8.29698 13.3879 8.80629 14.7192 9.39634 16.0067C8.80008 17.3129 8.28456 18.6629 7.856 20.0379ZM15.0981 26.1629C14.0733 27.1067 12.887 27.8567 11.5951 28.3692C10.9056 28.7004 10.1106 28.7317 9.40255 28.4504C8.41499 27.8754 8.00506 25.6692 8.56406 22.7004C8.63238 22.3504 8.70691 22.0004 8.79387 21.6567C10.1851 21.9567 11.5888 22.1629 13.0112 22.2692C13.831 23.4379 14.7316 24.5567 15.6944 25.6067C15.4956 25.8004 15.2968 25.9879 15.0981 26.1629ZM16.6198 24.6442C15.9863 23.9567 15.3527 23.1942 14.7378 22.3754C15.3341 22.4004 15.949 22.4129 16.5701 22.4129C17.2099 22.4129 17.8372 22.4004 18.4583 22.3692C17.8869 23.1629 17.272 23.9192 16.6198 24.6442ZM24.7377 26.5192C24.6818 27.2817 24.3091 27.9942 23.7128 28.4754C22.7253 29.0504 20.6197 28.3004 18.3465 26.3379C18.0856 26.1129 17.8247 25.8692 17.5577 25.6192C18.508 24.5629 19.3837 23.4442 20.1787 22.2692C21.6011 22.1504 23.0172 21.9317 24.4147 21.6129C24.4768 21.8692 24.5327 22.1254 24.5824 22.3754C24.8867 23.7254 24.9364 25.1317 24.7377 26.5192ZM25.8681 19.8004C25.6942 19.8567 25.5202 19.9129 25.3401 19.9629C24.9054 18.6004 24.3712 17.2692 23.7563 15.9754C24.3526 14.7004 24.8557 13.3879 25.278 12.0442C25.601 12.1379 25.9115 12.2379 26.2097 12.3379C29.104 13.3379 31.135 14.8254 31.135 15.9629C31.135 17.1879 28.9674 18.7692 25.8681 19.8004ZM16.5701 18.8629C18.1415 18.8629 19.4148 17.5817 19.4148 16.0004C19.4148 14.4192 18.1415 13.1379 16.5701 13.1379C14.9987 13.1379 13.7254 14.4192 13.7254 16.0004C13.7254 17.5817 14.9987 18.8629 16.5701 18.8629Z" fill="#21B6F3"/>
</g>
<defs>
<clipPath id="clip0">
<rect width="31.8006" height="32" fill="white" transform="translate(0.6698)"/>
</clipPath>
</defs>
</svg>
