<svg width="32" height="32" viewBox="0 0 32 32" fill="none" xmlns="http://www.w3.org/2000/svg">
<path d="M15.0918 22.148C15.0768 22.178 15.0618 22.202 15.0918 22.148V22.148ZM27.5483 17.798C26.5427 17.7977 25.5504 18.0286 24.6483 18.473C24.3533 17.878 24.0483 17.358 23.9983 16.968C23.9383 16.513 23.8733 16.243 23.9433 15.703C24.0133 15.163 24.3283 14.398 24.3233 14.343C24.3183 14.288 24.2533 14.013 23.6083 14.008C22.9633 14.003 22.4083 14.133 22.3438 14.303C22.2299 14.6137 22.1413 14.933 22.0788 15.258C21.9638 15.843 20.7893 17.933 20.1243 19.023C19.9043 18.598 19.7193 18.223 19.6793 17.923C19.6193 17.468 19.5543 17.198 19.6243 16.658C19.6943 16.118 20.0093 15.353 20.0043 15.298C19.9993 15.243 19.9343 14.968 19.2898 14.963C18.6453 14.958 18.0898 15.088 18.0248 15.258C17.9598 15.428 17.8898 15.828 17.7598 16.213C17.6298 16.598 16.0653 20.078 15.6558 20.983C15.4458 21.443 15.2658 21.813 15.1358 22.063C15.1158 22.103 15.1008 22.128 15.0908 22.148C15.1058 22.123 15.1158 22.098 15.1158 22.108C15.0058 22.323 14.9408 22.443 14.9408 22.443V22.448C14.8558 22.608 14.7608 22.753 14.7158 22.753C14.6858 22.753 14.6208 22.333 14.7308 21.758C14.9658 20.548 15.5208 18.668 15.5158 18.603C15.5108 18.568 15.6208 18.243 15.1508 18.068C14.6958 17.903 14.5308 18.178 14.4908 18.178C14.4508 18.178 14.4208 18.278 14.4208 18.278C14.4208 18.278 14.9258 16.158 13.4513 16.158C12.5313 16.158 11.2513 17.168 10.6223 18.083C10.2273 18.298 9.37232 18.763 8.47232 19.258C8.12732 19.448 7.77232 19.643 7.43732 19.828C7.41232 19.803 7.39232 19.778 7.36732 19.753C5.57782 17.843 2.27382 16.493 2.41382 13.928C2.46382 12.993 2.78882 10.538 8.76732 7.55799C13.6673 5.11799 17.5848 5.78798 18.2593 7.27798C19.2293 9.40298 16.1648 13.358 11.0763 13.928C9.13682 14.143 8.11732 13.393 7.86232 13.113C7.59732 12.818 7.55732 12.803 7.45732 12.858C7.29232 12.948 7.39732 13.208 7.45732 13.363C7.60732 13.758 8.23232 14.458 9.29682 14.808C10.2318 15.113 12.5058 15.283 15.2553 14.218C18.3443 13.028 20.7488 9.71298 20.0438 6.93799C19.3258 4.11799 14.6498 3.19299 10.2283 4.76299C7.59382 5.69799 4.74482 7.16799 2.69532 9.08299C0.260822 11.363 -0.128678 13.348 0.0313218 14.178C0.600822 17.123 4.65982 19.043 6.28432 20.463C6.20432 20.508 6.12932 20.548 6.05932 20.588C5.24482 20.993 2.15032 22.613 1.37582 24.323C0.500822 26.263 1.52082 27.653 2.19032 27.843C4.27982 28.423 6.41932 27.378 7.56882 25.663C8.71832 23.948 8.57882 21.708 8.04882 20.688C8.04382 20.673 8.03382 20.663 8.02882 20.648C8.23882 20.523 8.45382 20.398 8.66882 20.273C9.08332 20.028 9.48832 19.803 9.84332 19.608C9.64332 20.148 9.49832 20.798 9.42332 21.738C9.33332 22.838 9.78832 24.263 10.3783 24.823C10.6383 25.068 10.9528 25.073 11.1478 25.073C11.8378 25.073 12.1478 24.503 12.4923 23.823C12.9173 22.993 13.2923 22.028 13.2923 22.028C13.2923 22.028 12.8223 24.638 14.1073 24.638C14.5768 24.638 15.0468 24.033 15.2573 23.723V23.728C15.2573 23.728 15.2673 23.708 15.2923 23.668C15.3423 23.593 15.3673 23.548 15.3673 23.548V23.533C15.5573 23.208 15.9723 22.463 16.5968 21.233C17.4068 19.643 18.1813 17.658 18.1813 17.658C18.2562 18.0943 18.3597 18.5253 18.4913 18.948C18.6313 19.423 18.9263 19.943 19.1613 20.448C18.9713 20.708 18.8563 20.858 18.8563 20.858C18.8567 20.8618 18.8585 20.8654 18.8613 20.868C18.7113 21.068 18.5413 21.283 18.3663 21.493C17.7268 22.253 16.9663 23.123 16.8663 23.373C16.7463 23.668 16.7763 23.888 17.0063 24.058C17.1763 24.188 17.4763 24.208 17.7908 24.183C18.3658 24.143 18.7708 24.003 18.9658 23.913C19.3253 23.7841 19.6651 23.6057 19.9753 23.383C20.6003 22.923 20.9803 22.263 20.9453 21.393C20.9253 20.913 20.7703 20.433 20.5803 19.983C20.6353 19.903 20.6953 19.818 20.7503 19.733C21.7398 18.288 22.5048 16.702 22.5048 16.702C22.5797 17.1383 22.6832 17.5693 22.8148 17.992C22.9348 18.397 23.1693 18.842 23.3843 19.277C22.4548 20.032 21.8798 20.907 21.6798 21.482C21.3098 22.547 21.5998 23.027 22.1448 23.137C22.3898 23.187 22.7398 23.072 22.9998 22.962C23.386 22.8334 23.75 22.6462 24.0793 22.407C24.7043 21.947 25.3088 21.302 25.2688 20.427C25.2538 20.032 25.1438 19.637 24.9988 19.257C25.7838 18.927 26.8033 18.747 28.1033 18.897C30.8873 19.222 31.4323 20.962 31.3273 21.687C31.2223 22.412 30.6373 22.817 30.4423 22.937C30.2473 23.057 30.1873 23.102 30.2023 23.192C30.2273 23.322 30.3173 23.317 30.4823 23.287C30.7123 23.247 31.9418 22.697 31.9968 21.352C32.0768 19.652 30.4423 17.782 27.5468 17.797L27.5483 17.798ZM6.08932 25.033C5.16982 26.038 3.87982 26.418 3.32532 26.098C2.73032 25.752 2.96532 24.273 4.09982 23.202C4.78982 22.552 5.67932 21.952 6.26932 21.582C6.40432 21.502 6.59932 21.382 6.83932 21.237C6.87932 21.212 6.89932 21.202 6.89932 21.202C6.94432 21.172 6.99432 21.147 7.04432 21.117C7.45882 22.637 7.05932 23.977 6.08932 25.032V25.033ZM12.8073 20.463C12.4873 21.248 11.8128 23.248 11.4028 23.143C11.0528 23.053 10.8378 21.528 11.3328 20.028C11.5828 19.273 12.1128 18.373 12.4278 18.023C12.9323 17.458 13.4873 17.278 13.6173 17.503C13.7923 17.798 13.0073 19.973 12.8073 20.463ZM18.3573 23.113C18.2223 23.183 18.0973 23.228 18.0373 23.193C17.9923 23.168 18.0923 23.073 18.0923 23.073C18.0923 23.073 18.7873 22.328 19.0623 21.988C19.2223 21.788 19.4073 21.553 19.6068 21.293C19.6068 21.318 19.6118 21.343 19.6118 21.373C19.6053 22.268 18.7458 22.873 18.3558 23.113H18.3573ZM22.6363 22.138C22.5363 22.068 22.5513 21.833 22.8863 21.103C23.0163 20.818 23.3158 20.338 23.8363 19.878C23.8952 20.0521 23.9273 20.2342 23.9313 20.418C23.9263 21.543 23.1213 21.963 22.6368 22.138H22.6363Z" fill="#C71585"/>
</svg>
