<svg width="32" height="20" viewBox="0 0 32 20" fill="none" xmlns="http://www.w3.org/2000/svg">
<g clip-path="url(#clip0)">
<path fill-rule="evenodd" clip-rule="evenodd" d="M16 0C11.7333 0 9.06667 2.13333 8 6.4C9.6 4.26667 11.4667 3.46667 13.6 4C14.8172 4.304 15.6871 5.18756 16.6501 6.16474C18.2187 7.75704 20.0344 9.6 24 9.6C28.2667 9.6 30.9333 7.46667 32 3.2C30.4 5.33333 28.5333 6.13333 26.4 5.6C25.1828 5.296 24.3129 4.41244 23.3499 3.43526C21.7813 1.84296 19.9656 0 16 0ZM8 9.6C3.73333 9.6 1.06667 11.7333 0 16C1.6 13.8667 3.46667 13.0667 5.6 13.6C6.81719 13.9046 7.68711 14.7876 8.65007 15.7647C10.2187 17.357 12.0344 19.2 16 19.2C20.2667 19.2 22.9333 17.0667 24 12.8C22.4 14.9333 20.5333 15.7333 18.4 15.2C17.1828 14.896 16.3129 14.0124 15.3499 13.0353C13.7813 11.443 11.9656 9.6 8 9.6Z" fill="#06B6D4"/>
</g>
<defs>
<clipPath id="clip0">
<rect width="32" height="19.5556" fill="white"/>
</clipPath>
</defs>
</svg>
