<svg width="32" height="32" viewBox="0 0 32 32" fill="none" xmlns="http://www.w3.org/2000/svg">
<path d="M0 16V32H32V0H0V16ZM25.788 14.7253C26.6013 14.928 27.22 15.2893 27.7893 15.8787C28.084 16.1933 28.5213 16.7667 28.556 16.9053C28.5667 16.9453 27.1747 17.8787 26.332 18.4027C26.3013 18.4227 26.1787 18.2907 26.0427 18.088C25.6293 17.488 25.1987 17.2293 24.5387 17.184C23.568 17.1173 22.944 17.6253 22.9493 18.4733C22.9405 18.6819 22.9874 18.889 23.0853 19.0733C23.2987 19.5147 23.696 19.78 24.9387 20.3173C27.2307 21.304 28.2107 21.9533 28.82 22.8773C29.5 23.908 29.6533 25.5547 29.1907 26.7787C28.684 28.1093 27.424 29.0133 25.6507 29.312C25.1027 29.4093 23.8027 29.3947 23.2133 29.288C21.928 29.0587 20.7093 28.424 19.9573 27.5907C19.6627 27.2667 19.088 26.4173 19.124 26.3573C19.1387 26.336 19.2707 26.2547 19.4173 26.1693C19.5613 26.088 20.0987 25.7773 20.6067 25.4827L21.5267 24.9493L21.72 25.2347C21.9893 25.6453 22.5773 26.2093 22.9333 26.3973C23.9547 26.936 25.356 26.86 26.0467 26.24C26.1856 26.123 26.2955 25.9755 26.3679 25.8089C26.4403 25.6424 26.4732 25.4614 26.464 25.28C26.464 24.9093 26.4173 24.7467 26.224 24.4667C25.976 24.112 25.468 23.8133 24.0253 23.1867C22.3747 22.476 21.664 22.0347 21.0133 21.3333C20.6072 20.8705 20.3073 20.3244 20.1347 19.7333C20.0133 19.2813 19.9827 18.148 20.0787 17.692C20.4187 16.096 21.6227 14.9853 23.36 14.6547C23.924 14.548 25.2347 14.588 25.788 14.7253V14.7253ZM18.276 16.0613L18.2867 17.372H14.12V29.2067H11.1733V17.372H7.01067V16.0867C7.01067 15.3747 7.02533 14.78 7.04533 14.7667C7.06133 14.7453 9.596 14.7347 12.668 14.74L18.2613 14.756L18.276 16.0613Z" fill="#1E90FF"/>
</svg>
