<svg width="85" height="85" viewBox="0 0 85 85" fill="none" xmlns="http://www.w3.org/2000/svg">
<rect width="85" height="85" fill="#2A2A2A" fill-opacity="0.95"/>
<path d="M47.6398 71H37.4638C32.4078 71 28.5038 69.656 25.7518 66.968C22.9998 64.28 21.6238 60.408 21.6238 55.352V24.92C21.6238 19.864 22.9998 15.992 25.7518 13.304C28.5038 10.616 32.4078 9.272 37.4638 9.272H47.6398C52.6318 9.272 56.5038 10.648 59.2558 13.4C62.0078 16.088 63.3838 19.928 63.3838 24.92V27.8C63.3838 29.208 62.7118 29.912 61.3678 29.912H53.2078C51.8638 29.912 51.1918 29.208 51.1918 27.8V25.496C51.1918 23.448 50.7758 22.008 49.9438 21.176C49.1118 20.28 47.6718 19.832 45.6238 19.832H39.3838C37.3998 19.832 35.9598 20.28 35.0638 21.176C34.2318 22.008 33.8158 23.448 33.8158 25.496V54.776C33.8158 56.824 34.2318 58.296 35.0638 59.192C35.9598 60.024 37.3998 60.44 39.3838 60.44H45.6238C47.6718 60.44 49.1118 60.024 49.9438 59.192C50.7758 58.296 51.1918 56.824 51.1918 54.776V48.728C51.1918 48.024 50.8398 47.672 50.1358 47.672H44.3758C43.0318 47.672 42.3598 47 42.3598 45.656V39.128C42.3598 37.784 43.0318 37.112 44.3758 37.112H61.1758C62.6478 37.112 63.3838 37.848 63.3838 39.32V55.352C63.3838 60.344 62.0078 64.216 59.2558 66.968C56.5038 69.656 52.6318 71 47.6398 71Z" fill="white"/>
</svg>
